# xmcd
#
# Track frame offsets:
#	150
#	20299
#	39719
#	58123
#	81720
#	102910
#	118039
#	134374
#	149273
#	162710
#	174782
#	199519
#
# Disc length: 2926
#
# Revision: 1
# Processed by: cddbd v1.5.1PL0 Copyright (c) Steve Scherf et al.
# Submitted via: FreeRIP 2.00 
# Normalized: r0:TRMNUM
#
DISCID=a90b6c0c
DTITLE=Johnny A. - Somtime Tuesday Morning
DYEAR=1900
DGENRE=Blues
TTITLE0=Sometime Tuesday Morning 
TTITLE1=Oh Yeah 
TTITLE2=Wichita Lineman 
TTITLE3=Two Wheel Horse 
TTITLE4=In the Wind
TTITLE5=Yes It Is 
TTITLE6=You Don't Love Me 
TTITLE7=Up in the Attic 
TTITLE8=Walk Don't Run 
TTITLE9=Tex Critter 
TTITLE10=Lullabye for Nicole 
TTITLE11=Walkin' West Ave.
EXTD=
EXTT0=
EXTT1=
EXTT2=
EXTT3=
EXTT4=
EXTT5=
EXTT6=
EXTT7=
EXTT8=
EXTT9=
EXTT10=
EXTT11=
PLAYORDER=
